<svg id="e8d02272-a47f-4cb7-b9d9-fa4779735aee" data-name="Layer 1" xmlns="http://www.w3.org/2000/svg" viewBox="0 0 256 256"><defs><style>.b92a8605-2332-4391-b2ea-667de900f8db{fill:none;stroke:#ced0ce;stroke-miterlimit:10;stroke-width:12px;}</style></defs><path id="a5c234b0-6381-4848-a1b6-bca3a84ee90f" data-name="a464b966-36f4-4cd2-b7bf-a94b1b00c2b4" class="b92a8605-2332-4391-b2ea-667de900f8db" d="M235,9H27A17.84,17.84,0,0,0,9,26.6V235.4A17.84,17.84,0,0,0,27,253H235a17.84,17.84,0,0,0,18-17.6V26.5A17.82,17.82,0,0,0,235,9ZM81,215H45V99H81ZM62.1,82a21,21,0,1,1,5.31-41.36A20.73,20.73,0,0,1,83,60.9V61h0A19.72,19.72,0,0,1,64.6,82ZM214.9,215H179V158.4c0-13.5-.2-30.8-18.6-30.8S139,142.3,139,157.5V215H103V99h34v16h.5c4.79-9.1,16.58-18.7,34.16-18.7,36.55-.1,43.34,23.9,43.34,55.1Z" transform="translate(-3 -3)"/></svg>