<?xml version="1.0" standalone="no"?>
<!DOCTYPE svg PUBLIC "-//W3C//DTD SVG 20010904//EN"
 "http://www.w3.org/TR/2001/REC-SVG-20010904/DTD/svg10.dtd">
<svg version="1.0" xmlns="http://www.w3.org/2000/svg"
 width="1024.000000pt" height="1024.000000pt" viewBox="0 0 1024.000000 1024.000000"
 preserveAspectRatio="xMidYMid meet">
<metadata>
Created by potrace 1.14, written by Peter Selinger 2001-2017
</metadata>
<g transform="translate(0.000000,1024.000000) scale(0.100000,-0.100000)"
fill="#000000" stroke="none">
<path d="M1116 9764 c-330 -71 -585 -331 -645 -659 -15 -83 -15 -7887 0 -7970
51 -275 255 -523 510 -619 161 -60 -154 -56 4139 -56 3539 0 3928 2 3998 16
166 34 322 122 439 248 101 109 158 212 200 367 17 61 18 273 18 4029 0 3756
-1 3968 -18 4029 -42 155 -99 258 -200 367 -117 126 -273 214 -439 248 -70 14
-458 16 -4005 15 -3422 -1 -3937 -3 -3997 -15z m7969 -199 c243 -52 437 -251
481 -493 11 -63 13 -364 14 -1678 l0 -1601 -732 -474 c-910 -587 -2329 -1499
-3083 -1981 l-570 -364 -23 39 c-12 21 -61 81 -110 132 -128 135 -212 292
-198 369 15 82 78 135 283 244 186 99 302 183 457 332 198 191 534 576 708
810 121 163 434 639 575 875 241 403 346 615 400 811 24 87 27 116 27 239 0
115 -5 161 -28 260 -41 181 -44 304 -12 500 65 404 53 773 -35 1022 -44 125
-74 189 -111 236 -17 23 -33 43 -33 45 -1 1 -45 -39 -97 -90 -203 -199 -460
-341 -713 -393 -285 -58 -654 -1 -915 142 -113 62 -196 131 -326 268 -132 140
-169 165 -242 165 -94 -1 -189 -83 -289 -251 -34 -58 -116 -217 -181 -355
-135 -284 -163 -329 -530 -869 -1179 -1732 -1308 -1912 -1617 -2260 -389 -436
-532 -627 -634 -845 -138 -295 -157 -561 -60 -836 116 -329 346 -580 553 -601
136 -14 213 42 750 549 221 209 276 243 387 242 54 0 79 -6 142 -36 42 -20 99
-58 126 -83 55 -52 221 -284 294 -410 124 -216 186 -470 187 -760 1 -128 5
-174 24 -245 6 -23 -2 -30 -107 -93 -214 -126 -375 -187 -491 -187 -55 0 -121
25 -148 56 -9 10 -37 80 -61 155 -25 75 -59 164 -76 196 -61 121 -155 248
-265 359 -275 274 -484 319 -553 120 -29 -81 -23 -265 11 -381 63 -211 157
-333 365 -474 172 -116 211 -171 219 -301 6 -104 -17 -187 -73 -270 -173 -254
-402 -475 -684 -659 l-125 -81 -368 0 c-298 0 -384 3 -446 16 -231 47 -429
242 -477 470 -22 104 -22 7844 0 7948 36 170 161 332 320 413 151 78 -224 71
4120 72 3403 1 3909 -1 3970 -14z m-3845 -1135 c11 -11 20 -29 20 -40 0 -10
14 -35 31 -54 39 -45 84 -55 143 -32 33 13 50 14 70 6 23 -8 25 -13 16 -30 -6
-12 -26 -30 -43 -41 -27 -17 -43 -19 -99 -15 -119 9 -175 56 -193 163 -10 64
14 84 55 43z m1520 -82 c0 -109 -72 -177 -201 -192 -63 -7 -134 27 -134 64 0
35 29 37 66 6 76 -64 199 2 199 107 0 31 7 37 42 37 22 0 28 -4 28 -22z
m-1623 -168 c95 -99 149 -128 259 -138 89 -8 97 -17 64 -69 -57 -93 -174 -115
-289 -53 -108 58 -231 203 -231 272 0 32 45 68 85 68 31 0 44 -9 112 -80z
m1852 4 c19 -14 22 -23 18 -50 -18 -110 -241 -295 -375 -311 -76 -9 -141 36
-157 108 -10 44 8 59 69 59 64 0 147 24 195 56 20 13 62 53 94 89 52 58 62 65
95 65 21 0 48 -7 61 -16z m-986 -142 c73 -81 74 -320 2 -463 -32 -61 -39 -58
-85 43 -29 63 -34 85 -38 173 -3 77 0 116 13 161 26 92 71 127 108 86z m3567
-6846 c-15 -104 -41 -171 -102 -262 -60 -90 -147 -165 -243 -211 -144 -68 118
-63 -3401 -61 l-3187 3 344 229 c489 325 1754 1175 2719 1826 1633 1102 2316
1561 3089 2077 l786 525 3 -2023 c2 -1455 0 -2046 -8 -2103z m-5114 2287 c35
-12 67 -34 114 -82 62 -62 71 -77 159 -274 l93 -209 -8 -95 -9 -96 -195 -124
c-107 -68 -208 -131 -223 -139 l-28 -15 -59 126 c-132 278 -226 552 -237 685
-5 64 -2 82 15 116 52 101 238 154 378 107z"/>
<path d="M5518 9414 c-327 -41 -557 -144 -598 -269 -30 -91 16 -201 128 -306
264 -248 730 -403 1113 -369 486 42 901 281 865 499 -29 178 -350 346 -824
432 -156 28 -512 35 -684 13z"/>
</g>
</svg>
