<svg id="f6ea5e9a-405b-4ff9-a95b-b9e5abe07307" data-name="Layer 1" xmlns="http://www.w3.org/2000/svg" viewBox="0 0 576 448"><defs><style>.b6c6ea34-fe27-49fb-b4ac-520e68b5dd0e{fill:#cfd1ce;}</style></defs><path class="b6c6ea34-fe27-49fb-b4ac-520e68b5dd0e" d="M528,32H48A48,48,0,0,0,0,80V432a48,48,0,0,0,48,48H528a48,48,0,0,0,48-48V80A48,48,0,0,0,528,32Zm0,400H48V80H528ZM208,256a64,64,0,1,0-64-64A64.06,64.06,0,0,0,208,256ZM118.4,384H297.6c12.4,0,22.4-8.6,22.4-19.2V345.6c0-31.8-30.1-57.6-67.2-57.6-10.8,0-18.7,8-44.8,8-26.9,0-33.4-8-44.8-8C126.1,288,96,313.8,96,345.6v19.2C96,375.4,106,384,118.4,384ZM360,320H472a8,8,0,0,0,8-8V296a8,8,0,0,0-8-8H360a8,8,0,0,0-8,8v16A8,8,0,0,0,360,320Zm0-64H472a8,8,0,0,0,8-8V232a8,8,0,0,0-8-8H360a8,8,0,0,0-8,8v16A8,8,0,0,0,360,256Zm0-64H472a8,8,0,0,0,8-8V168a8,8,0,0,0-8-8H360a8,8,0,0,0-8,8v16A8,8,0,0,0,360,192Z" transform="translate(0 -32)"/></svg>