<svg id="a957b4bb-fda1-436d-b08f-ed3183cf9099" data-name="Layer 1" xmlns="http://www.w3.org/2000/svg" viewBox="0 0 256 256"><defs><style>.a01020c8-a471-4fc9-91f1-2e197f8ce339{fill:none;}.ec6680e2-e4e6-494a-8735-0e2230f9bd12{fill:#ced0ce;}</style></defs><path class="a01020c8-a471-4fc9-91f1-2e197f8ce339" d="M0,0H256V256H0Z"/><path class="ec6680e2-e4e6-494a-8735-0e2230f9bd12" d="M50.35,28.44a174.44,174.44,0,0,0,6.4,36.84L39.68,82.35A210.93,210.93,0,0,1,28.87,28.44H50.35m140.23,171a182,182,0,0,0,37,6.4V227a219.34,219.34,0,0,1-54.05-10.67l17.07-16.92M64,0H14.22A14.26,14.26,0,0,0,0,14.22C0,147.77,108.23,256,241.78,256A14.26,14.26,0,0,0,256,241.78V192.14a14.26,14.26,0,0,0-14.22-14.22A162,162,0,0,1,191,169.81a11.87,11.87,0,0,0-4.4-.71,14.53,14.53,0,0,0-10.1,4.13l-31.29,31.29a215.5,215.5,0,0,1-93.73-93.73L82.77,79.5A14.26,14.26,0,0,0,86.33,65a161.67,161.67,0,0,1-8.11-50.78A14.26,14.26,0,0,0,64,0Z"/></svg>