<svg id="f3710685-fd4e-490e-8825-e76b846bfc24" data-name="Layer 1" xmlns="http://www.w3.org/2000/svg" viewBox="0 0 95.64 95.64"><defs><style>.ac78a7e1-6ad3-4b95-a1d4-e3d7c8bf7954{fill:none;stroke-width:3.64px;}.a5283a52-b377-4f50-bc59-2c8494ed84cd,.ac78a7e1-6ad3-4b95-a1d4-e3d7c8bf7954,.eae3abca-07cd-45b1-9b2f-d3f561f84336,.f8c8a4d4-0580-456e-98bf-b31b207040e9{stroke:#cfd1ce;stroke-miterlimit:10;}.a5283a52-b377-4f50-bc59-2c8494ed84cd,.eae3abca-07cd-45b1-9b2f-d3f561f84336{fill:#cfd1ce;}.a5283a52-b377-4f50-bc59-2c8494ed84cd{stroke-width:4.87px;}.eae3abca-07cd-45b1-9b2f-d3f561f84336,.f8c8a4d4-0580-456e-98bf-b31b207040e9{stroke-width:5.28px;}.f8c8a4d4-0580-456e-98bf-b31b207040e9{fill:#231f20;}</style></defs><circle class="ac78a7e1-6ad3-4b95-a1d4-e3d7c8bf7954" cx="47.82" cy="47.82" r="46"/><circle class="a5283a52-b377-4f50-bc59-2c8494ed84cd" cx="47.82" cy="24.73" r="11.15"/><path class="eae3abca-07cd-45b1-9b2f-d3f561f84336" d="M74,62.7c.08-6.4.19-15.59-4-17.26C64.6,43.28,59.25,56.66,48.78,56.56c-10.16-.09-15.06-12.78-20.48-10.7-4.33,1.66-4.42,11-4.47,16.63-.07,7.59-.18,19.92,8.53,26.4,5.25,3.91,11.34,3.93,16.11,4s12.05,0,17.77-4.68C73.71,82,73.84,71.73,74,62.7Z" transform="translate(-0.18 -0.18)"/><path class="f8c8a4d4-0580-456e-98bf-b31b207040e9" d="M103.77,79" transform="translate(-0.18 -0.18)"/></svg>