<?xml version="1.0" encoding="utf-8"?>
<!-- Generator: Adobe Illustrator 25.2.3, SVG Export Plug-In . SVG Version: 6.00 Build 0)  -->
<svg version="1.1" id="fd27be30-8ae3-4f64-be04-608b5c1e113e"
	 xmlns="http://www.w3.org/2000/svg" xmlns:xlink="http://www.w3.org/1999/xlink" x="0px" y="0px" viewBox="0 0 1000 300"
	 style="enable-background:new 0 0 1000 300;" xml:space="preserve">
<style type="text/css">
	.st0{fill:#FFFFFF;}
	.st1{fill:#231F20;}
	.st2{font-family:'MyriadPro-Bold';}
	.st3{font-size:266.79px;}
	.st4{font-size:153.86px;}
	.st5{font-size:162px;}
</style>
<path class="st0" d="M30,0h940c16.6,0,30,13.4,30,30v240c0,16.6-13.4,30-30,30H30c-16.6,0-30-13.4-30-30V30C0,13.4,13.4,0,30,0z"/>
<text transform="matrix(0.98 0 0 1 3.25 227.2305)" class="st1 st2 st3">[</text>
<text transform="matrix(-0.98 0 0 1 247.7305 227.2305)" class="st1 st2 st3">[</text>
<text transform="matrix(1.02 0 0 1 49.3403 157.5898)" class="st1 st2 st4">d</text>
<text transform="matrix(1.02 0 0 1 342.9102 150)" class="st1 st2 st5">D</text>
<text transform="matrix(1.02 0 0 1 452.958 150)" class="st1 st2 st5">r</text>
<text transform="matrix(1.02 0 0 1 507.6504 150)" class="st1 st2 st5">iving</text>
<text transform="matrix(1.02 0 0 1 390.3008 245.4502)" class="st1 st2 st5">D</text>
<text transform="matrix(1.02 0 0 1 501.0107 245.4502)" class="st1 st2 st5">oge</text>
<text transform="matrix(1.02 0 0 1 95.6406 239.7002)" class="st1 st2 st4">d</text>
</svg>
