<svg id="b2a13cb2-f946-4ce6-8a56-99c8dea2e55c" data-name="Layer 1" xmlns="http://www.w3.org/2000/svg" viewBox="0 0 100 116"><defs><style>.bbda77e3-4fdd-4b29-bc97-2664db39cd3a{fill:#cfd1ce;}</style></defs><path class="bbda77e3-4fdd-4b29-bc97-2664db39cd3a" d="M9.63,0A9.7,9.7,0,0,0,0,9.67v96.66A9.7,9.7,0,0,0,9.63,116H90.37a9.7,9.7,0,0,0,9.63-9.67V9.67A9.7,9.7,0,0,0,90.37,0Zm0,6.44H90.37a3.15,3.15,0,0,1,3.21,3.23v96.66a3.15,3.15,0,0,1-3.21,3.23H9.63a3.15,3.15,0,0,1-3.21-3.23V9.67A3.15,3.15,0,0,1,9.63,6.44ZM50,16.91a8.81,8.81,0,0,0-8.72,8.93,8.72,8.72,0,1,0,17.44,0A8.82,8.82,0,0,0,50,16.91ZM40.76,37.24c-6.14,0-11.54,10.35-11.52,16.67H70.76c0-6.32-5.38-16.65-11.52-16.67ZM14,66.58V73H85.41V66.58Zm0,13.13v6.37H85.41V79.71Zm0,13.14v6.37H85.41V92.85Z" transform="translate(0)"/></svg>