<svg id="bc330e82-767a-4d4a-8c8c-5f1e477872d5" data-name="Layer 1" xmlns="http://www.w3.org/2000/svg" viewBox="0 0 64 37.13"><defs><style>.fab88af6-417a-416d-8bf7-bbf1027fdc42{fill:#cfd1ce;}</style></defs><path class="fab88af6-417a-416d-8bf7-bbf1027fdc42" d="M64,49.59c-2.33.59-3.77,0-5.06-1.91L49.75,35,48.42,33.2,37.69,47.72c-1.22,1.74-2.51,2.5-4.8,1.89L46.63,31.16,33.84,14.5c2.2-.43,3.72-.21,5.07,1.76l9.53,12.87L58,16.33c1.23-1.74,2.55-2.41,4.76-1.76l-5,6.57-6.72,8.75a1.81,1.81,0,0,0,.05,2.65ZM0,30.85l1.12-5.52C4.2,14.39,16.74,9.84,25.39,16.6c5.05,4,6.31,9.6,6.06,15.9H3C2.53,43.84,10.69,50.68,21.1,47.19,24.75,46,26.9,43.11,28,39.53c.54-1.79,1.45-2.07,3.13-1.56-.86,4.47-2.8,8.21-6.9,10.55C18.08,52,9.34,50.89,4.74,46,2,43.2.87,39.62.36,35.8.28,35.17.12,34.57,0,34c0-1,0-2.07,0-3.1Zm3-.76H28.76c-.17-8.2-5.28-14-12.26-14.07C8.84,16,3.34,21.65,3,30.09Z" transform="translate(0 -13.42)"/></svg>