<svg id="b344052c-57e0-48ab-8a89-190607003e9b" data-name="Layer 1" xmlns="http://www.w3.org/2000/svg" viewBox="0 0 512 512"><defs><style>.b0b395b7-7f2e-4b35-a514-4469992c7f73{fill:#cfd1ce;}</style></defs><path class="b0b395b7-7f2e-4b35-a514-4469992c7f73" d="M432,320H400a16,16,0,0,0-16,16V448H64V128H208a16,16,0,0,0,16-16V80a16,16,0,0,0-16-16H48A48,48,0,0,0,0,112V464a48,48,0,0,0,48,48H400a48,48,0,0,0,48-48h0V336A16,16,0,0,0,432,320ZM488,0H360C338.63,0,328,25.91,343,41l35.73,35.73L135,320.37a24,24,0,0,0-.06,33.94l.06.06L157.67,377a24,24,0,0,0,33.94.06l.06-.06L435.28,133.32,471,169c15,15,41,4.5,41-17V24A24,24,0,0,0,488,0Z"/></svg>