<svg id="b01b74bc-b4c6-4941-98b6-d7702bd8a000" data-name="Layer 1" xmlns="http://www.w3.org/2000/svg" viewBox="0 0 120.78 117.79"><defs><style>.f561fba4-a35f-4f6f-9e23-49438ac08615,.f65d3661-4367-4270-9996-1b9968e036b9{fill:#ced0ce;}.f65d3661-4367-4270-9996-1b9968e036b9{fill-rule:evenodd;}</style></defs><path class="f65d3661-4367-4270-9996-1b9968e036b9" d="M64,5.1A60.39,60.39,0,0,0,44.91,122.79c3,.56,4.12-1.31,4.12-2.9,0-1.44-.05-6.2-.08-11.24-16.8,3.65-20.34-7.13-20.34-7.13-2.75-7-6.71-8.84-6.71-8.84-5.48-3.74.42-3.67.42-3.67,6.06.43,9.25,6.23,9.25,6.23,5.39,9.23,14.13,6.56,17.58,5,.54-3.91,2.1-6.57,3.83-8.08-13.41-1.52-27.51-6.7-27.51-29.84a23.39,23.39,0,0,1,6.22-16.21c-.63-1.52-2.7-7.66.58-16,0,0,5.07-1.62,16.61,6.19a57.09,57.09,0,0,1,30.25,0c11.52-7.82,16.59-6.19,16.59-6.19,3.28,8.31,1.22,14.46.59,16a23.32,23.32,0,0,1,6.21,16.21c0,23.19-14.12,28.3-27.57,29.79,2.17,1.88,4.1,5.55,4.1,11.19,0,8.08-.07,14.58-.07,16.57,0,1.6,1.09,3.49,4.15,2.89A60.4,60.4,0,0,0,64,5.1Z" transform="translate(-3.61 -5.1)"/><path class="f561fba4-a35f-4f6f-9e23-49438ac08615" d="M26.48,91.81c-.13.3-.6.39-1,.18s-.69-.6-.54-.91.6-.39,1-.18.69.61.53.91Zm2.45,2.73A1.12,1.12,0,0,1,27.52,93c.3-.26.84-.14,1.24.28s.47,1,.17,1.26ZM31.31,98c-.37.26-1,0-1.35-.52s-.37-1.18,0-1.44,1,0,1.35.51.37,1.19,0,1.45Zm3.26,3.36c-.33.37-1,.27-1.55-.23a1.16,1.16,0,0,1-.34-1.54c.33-.37,1-.27,1.56.23s.69,1.18.34,1.54Zm4.5,1.95c-.14.48-.82.69-1.51.49s-1.13-.76-1-1.24.83-.7,1.52-.48S39.22,102.84,39.07,103.32Zm5,.36c0,.5-.57.92-1.28.92s-1.31-.38-1.32-.87.57-.91,1.29-.93,1.31.39,1.31.88Zm4.59-.78c.09.49-.41,1-1.12,1.12s-1.35-.17-1.44-.65.42-1,1.12-1.13,1.35.17,1.44.66Z" transform="translate(-3.61 -5.1)"/></svg>