<svg id="ee33d2bd-306a-4bdf-aeb7-b6d7167d5b49" data-name="Layer 1" xmlns="http://www.w3.org/2000/svg" viewBox="0 0 640 895"><defs><style>.e5c8d5d4-776f-4b0e-b261-d10865dce083{fill:#cfd1ce;}</style></defs><path class="e5c8d5d4-776f-4b0e-b261-d10865dce083" d="M512,192A127.61,127.61,0,0,0,384,320c0,47,26,88,64,110v18c0,64-64,128-128,128-53,0-95,11-128,29V302c38-22,64-63,64-110A128,128,0,0,0,0,192c0,47,26,88,64,110V721C26,743,0,784,0,831a128,128,0,0,0,256,0c0-34-13-64-34-87,19-23,49-41,98-41,128,0,256-128,256-256V429c38-22,64-63,64-110A127.61,127.61,0,0,0,512,191ZM128,128c35,0,64,29,64,64s-29,64-64,64-64-29-64-64S93,128,128,128Zm0,768c-35,0-64-29-64-64s29-64,64-64,64,29,64,64S163,896,128,896ZM512,384c-35,0-64-29-64-64s29-64,64-64,64,29,64,64S547,384,512,384Z" transform="translate(0 -64)"/></svg>