<svg id="bd6118a2-349b-40f5-a2a9-28ceeb54c58c" data-name="Layer 1" xmlns="http://www.w3.org/2000/svg" viewBox="0 0 512 448"><defs><style>.f9847ae9-d642-44e1-9138-c40522c9a240{fill:#38c1d7;}</style></defs><path class="f9847ae9-d642-44e1-9138-c40522c9a240" d="M418.2,145.2q-8.1-2.7-16.2-5.1c.9-3.7,1.7-7.4,2.5-11.09,12.3-59.6,4.2-107.5-23.1-123.3-26.3-15.1-69.2.6-112.6,38.4-4.3,3.7-8.5,7.6-12.5,11.5-2.7-2.6-5.5-5.2-8.3-7.7-45.5-40.4-91.1-57.4-118.4-41.5-26.2,15.2-34,60.3-23,116.7,1.1,5.6,2.3,11.09,3.7,16.69-6.4,1.8-12.7,3.8-18.6,5.9C38.3,164.2,0,193.4,0,223.6c0,31.2,40.8,62.5,96.3,81.5,4.5,1.5,9,3,13.6,4.3-1.5,6-2.8,11.89-4,18-10.5,55.5-2.3,99.5,23.9,114.6,27,15.6,72.4-.4,116.6-39.1,3.5-3.1,7-6.3,10.5-9.7,4.4,4.3,9,8.4,13.6,12.4,42.8,36.8,85.1,51.7,111.2,36.6,27-15.6,35.8-62.9,24.4-120.5q-1.35-6.58-3-13.49c3.2-.9,6.3-1.9,9.4-2.9,57.7-19.1,99.5-50,99.5-81.7,0-30.3-39.4-59.7-93.8-78.4ZM282.9,60.31c37.2-32.4,71.9-45.1,87.7-36,16.9,9.7,23.4,48.9,12.8,100.4-.7,3.4-1.4,6.69-2.3,10a513.57,513.57,0,0,0-67.3-10.59A505.25,505.25,0,0,0,271.2,71C275.1,67.31,278.9,63.81,282.9,60.31ZM167.2,275.5c5.1,8.7,10.3,17.4,15.8,25.9a452.82,452.82,0,0,1-46.4-7.5,467.14,467.14,0,0,1,16.3-44.5c4.6,8.8,9.3,17.5,14.3,26.1ZM136.9,155.2c14.4-3.2,29.7-5.8,45.6-7.8-5.3,8.3-10.5,16.8-15.4,25.4s-9.7,17.2-14.2,26c-6.3-14.9-11.6-29.5-16-43.6Zm27.4,68.9c6.6-13.8,13.8-27.3,21.4-40.6s15.8-26.2,24.4-38.9c15-1.1,30.3-1.7,45.9-1.7s31,.6,45.9,1.7q12.75,18.9,24.3,38.7t21.7,40.4q-10,20.7-21.6,40.8c-7.6,13.3-15.7,26.2-24.2,39-14.9,1.1-30.4,1.6-46.1,1.6s-30.9-.5-45.6-1.4q-13.05-19.05-24.6-39c-7.7-13.3-14.8-26.8-21.5-40.6Zm180.6,51.2c5.1-8.8,9.9-17.7,14.6-26.7a464.21,464.21,0,0,1,16.9,44.3,439.24,439.24,0,0,1-47,8c5.4-8.4,10.5-17,15.5-25.6Zm14.4-76.5c-4.7-8.8-9.5-17.6-14.5-26.2s-10-16.9-15.3-25.2a460.18,460.18,0,0,1,45.9,8A442.56,442.56,0,0,1,359.3,198.8ZM256.2,86.31a439.12,439.12,0,0,1,29.6,35.8c-19.8-.9-39.7-.9-59.5,0C236.1,109.21,246.2,97.21,256.2,86.31ZM140.2,25c16.8-9.8,54.1,4.2,93.4,39,2.5,2.2,5,4.6,7.6,7a508.05,508.05,0,0,0-42.9,53.1,528.89,528.89,0,0,0-67.2,10.39c-1.3-5.09-2.4-10.29-3.5-15.49-9.4-48.4-3.2-84.9,12.6-94ZM115.7,288.6c-4.2-1.2-8.3-2.5-12.4-3.9-21.3-6.7-45.5-17.3-63-31.2a44.87,44.87,0,0,1-18.8-29.9c0-18.3,31.6-41.7,77.2-57.6,5.7-2,11.5-3.8,17.3-5.5a531.74,531.74,0,0,0,24.5,63.6A546.62,546.62,0,0,0,115.7,288.6Zm116.6,98a183,183,0,0,1-56.4,35.3,44.26,44.26,0,0,1-35.3,1.3c-15.9-9.2-22.5-44.5-13.5-92,1.1-5.6,2.3-11.2,3.7-16.69a501.83,501.83,0,0,0,67.9,9.79,527.72,527.72,0,0,0,43.2,53.4c-3.2,3.1-6.4,6.1-9.6,8.9Zm24.5-24.3c-10.2-11-20.4-23.2-30.3-36.3,9.6.4,19.5.6,29.5.6,10.3,0,20.4-.2,30.4-.7A431.25,431.25,0,0,1,256.8,362.29Zm130.7,30a44.44,44.44,0,0,1-16.5,31.3c-15.9,9.2-49.8-2.8-86.4-34.2-4.2-3.6-8.4-7.5-12.7-11.5a494.68,494.68,0,0,0,42.2-53.6,494.45,494.45,0,0,0,68.2-10.49c1,4.09,1.9,8.19,2.7,12.19a182.29,182.29,0,0,1,2.5,66.3ZM405.7,284.8c-2.8.9-5.6,1.8-8.5,2.6a508,508,0,0,0-25.5-63.8,505.46,505.46,0,0,0,24.5-62.9c5.2,1.5,10.2,3.1,15,4.7,46.6,16,79.3,39.8,79.3,58C490.5,243,455.6,268.3,405.7,284.8ZM256,269.8A45.8,45.8,0,1,0,210.2,224,45.79,45.79,0,0,0,256,269.8Z"/></svg>