<svg id="e27bb3fc-186e-4c15-bbdc-c0c3f3da64ed" data-name="Layer 1" xmlns="http://www.w3.org/2000/svg" viewBox="0 0 48 46"><defs><style>.f4858767-f37f-4391-aa8b-1222bd97d718{fill:#7f57c2;}</style></defs><ellipse class="f4858767-f37f-4391-aa8b-1222bd97d718" cx="21.5" cy="18.5" rx="3.5" ry="3.5"/><ellipse class="f4858767-f37f-4391-aa8b-1222bd97d718" cx="17.51" cy="32.5" rx="3.5" ry="3.5"/><path class="f4858767-f37f-4391-aa8b-1222bd97d718" d="M32.49,33A3.5,3.5,0,1,1,36,29.5,3.5,3.5,0,0,1,32.49,33Z" transform="translate(0 0)"/><path class="f4858767-f37f-4391-aa8b-1222bd97d718" d="M23,0C15.84,0,10,8.29,10,18.49c0,6,2,11.25,5.08,14.63A2.58,2.58,0,0,1,15,32.5a2.5,2.5,0,0,1,2.5-2.5h.14A18.5,18.5,0,0,1,14,18.49C14,10.63,18.13,4,23,4c4.12,0,7.68,4.74,8.69,10.94a27,27,0,0,1,4.23,1.62C35.24,7.27,29.71,0,23,0Z" transform="translate(0 0)"/><path class="f4858767-f37f-4391-aa8b-1222bd97d718" d="M37.15,19.49c-4.75-2.86-10.09-4-14.55-3.23a2.48,2.48,0,0,1,.73,3.93c3.52-.61,7.83.36,11.77,2.73C42,27,45.68,34.22,43.23,38.62a6.47,6.47,0,0,1-4.18,3,15.53,15.53,0,0,1-9.57-1A28.23,28.23,0,0,1,26,43.43,22.71,22.71,0,0,0,36.05,46a15.51,15.51,0,0,0,4-.51,10.39,10.39,0,0,0,6.65-4.92C50.31,34.12,46.1,24.86,37.15,19.49Z" transform="translate(0 0)"/><path class="f4858767-f37f-4391-aa8b-1222bd97d718" d="M32.49,32A2.5,2.5,0,0,1,30,29.5s0,0,0-.06a19,19,0,0,1-8.35,9.64c-4.29,2.58-9,3.53-12.7,2.55a6.5,6.5,0,0,1-4.18-3c-1.94-3.48,0-8.7,4.28-12.76a26.24,26.24,0,0,1-.87-4.54C1.11,26.8-1.93,34.8,1.27,40.57a10.41,10.41,0,0,0,6.65,4.92A15.56,15.56,0,0,0,12,46a23.29,23.29,0,0,0,11.76-3.49A23.23,23.23,0,0,0,33.4,31.82,2.5,2.5,0,0,1,32.49,32Z" transform="translate(0 0)"/></svg>