<svg id="a98b5f9c-8a5a-46fb-b6c9-21bd5cbc6483" data-name="Layer 1" xmlns="http://www.w3.org/2000/svg" viewBox="0 0 256 256"><defs><style>.f67b8d23-d26c-49da-b9e3-1a73a0eb2b3e{fill:#ed7899;}.a48a0fca-fc1a-4930-83da-38abfe83b891{fill:#f98cb3;}.bc38c3ec-9644-4eca-9c1e-b2529a3da6ff{fill:#e0678f;}.a8489853-f1ce-477c-9ecd-6642f7d1d454{fill:#8d6c9f;}</style></defs><path class="f67b8d23-d26c-49da-b9e3-1a73a0eb2b3e" d="M162.72,4.23C238,8.72,256,13.22,247,76.16S152.17,235.09,53.7,251.5c0,0-67.32,13.49-44.9-121.39Z" transform="translate(0.12)"/><path class="a48a0fca-fc1a-4930-83da-38abfe83b891" d="M4.24,130.11v62.95l26.63-37.23Zm26.63,27.25L53.7,247,91.07,145ZM94.16,143.6l85.42,36-27-89.92Zm45-134.88L170.59,31.2l27-27H139.12Zm18,80.93L170.59,31.2l80.93,27Z" transform="translate(0.12)"/><path class="f67b8d23-d26c-49da-b9e3-1a73a0eb2b3e" d="M178,188.07c5.47-6.11,64.77-72.9,69.06-102.92l-4.49,157.36L94.16,247l82.89-58.14A5.79,5.79,0,0,0,178,188.07Z" transform="translate(0.12)"/><path class="bc38c3ec-9644-4eca-9c1e-b2529a3da6ff" d="M184.08,184.06l56.2,56.2L85.17,251.5Z" transform="translate(0.12)"/><path class="f67b8d23-d26c-49da-b9e3-1a73a0eb2b3e" d="M11.17,117.06,30.71,82.85a17.82,17.82,0,0,1,2.9-3.79l44.9-44.9a17.86,17.86,0,0,1,4.67-3.36L125.35,9.71a18,18,0,0,1,18,1.12L161.66,23a18,18,0,0,1,7.08,20.65L154.59,86.14a18,18,0,0,1-5.12,7.76l-55,48.93a18,18,0,0,1-8.05,4.11l-45,10a18,18,0,0,1-17.94-6.33L12.74,137.22A18,18,0,0,1,11.17,117.06Z" transform="translate(0.12)"/><path class="a8489853-f1ce-477c-9ecd-6642f7d1d454" d="M162.46,106.79a4.49,4.49,0,1,0-8.62,2.53l3.34,11.41a4.51,4.51,0,0,0,4.31,3.24,4.3,4.3,0,0,0,1.27-.19,4.5,4.5,0,0,0,3.05-5.58Z" transform="translate(0.12)"/><path class="a8489853-f1ce-477c-9ecd-6642f7d1d454" d="M255.18,44.54c-.19-1.64-.42-3.27-.74-4.84,0,0,0-.05,0-.09A55.41,55.41,0,0,0,250.26,27a45.49,45.49,0,0,0-8.81-12.55C231.87,4.86,218.47,0,201.61,0H142.45a31.73,31.73,0,0,0-14.61,3.6s-3.69,1.71-4.5,2.11L81.17,26.8A22.17,22.17,0,0,0,75.32,31L30.45,75.89a21.81,21.81,0,0,0-3.64,4.72L4.38,120.27a31.5,31.5,0,0,0-4.5,16.18l.31,60.71A78.67,78.67,0,0,0,.24,208c.13,1.84.36,3.68.58,5.48a59.61,59.61,0,0,0,3.74,13.4c.54,1.26,1.12,2.47,1.75,3.69A44,44,0,0,0,18,244.9c.76.61,1.58,1.14,2.38,1.69.56.4,1.1.83,1.68,1.2,1.16.73,2.38,1.38,3.61,2,.26.14.51.31.78.44,1.44.7,2.94,1.33,4.48,1.91l.24.1A65.34,65.34,0,0,0,53.38,256h0l.11,0h.66c1.66,0,3.32,0,5-.18,2.06-.09,4.13-.27,6.25-.49h.09l174.8-8.73a9,9,0,0,0,8.54-8.63l6.7-174c0-.32.36-8.86.36-9.62A74,74,0,0,0,255.18,44.54ZM187.09,9l-1.35,1.49L170.86,26.4a22.46,22.46,0,0,0-6.7-7.11l-3-2-9.09-6h0L148.65,9ZM14,121.62a9.91,9.91,0,0,1,1-2.34L34.63,85.06a13.69,13.69,0,0,1,2.16-2.83L81.66,37.36a15,15,0,0,1,3.51-2.56l42.17-21.09a17.78,17.78,0,0,1,2.07-.81,13.69,13.69,0,0,1,11.46,1.67l1.62,1.08,8.68,5.8,8,5.3a13.54,13.54,0,0,1,5.31,15.51L150.31,84.7a13.68,13.68,0,0,1-3.82,5.85L91.42,139.46a13.41,13.41,0,0,1-6,3.11l-45,10A13.45,13.45,0,0,1,27,147.83l-2.61-3.28-6-7.47,0,0-2.11-2.66a13.21,13.21,0,0,1-3-8.4A12.14,12.14,0,0,1,14,121.62Zm22.87,123c-.37-.11-.76-.21-1.13-.33-.79-.26-1.55-.56-2.31-.86-.53-.21-1.07-.42-1.58-.64-.66-.29-1.29-.6-1.91-.91s-1.19-.63-1.77-1-1.05-.61-1.56-.93c-.68-.44-1.33-.9-2-1.38-.39-.28-.78-.55-1.15-.84a34.76,34.76,0,0,1-2.88-2.55C11.3,225.83,7.52,212,8.74,195.53L24.61,171.7a4.43,4.43,0,0,0-1.22-6.2,4.49,4.49,0,0,0-6.25,1.21L13,172.87V173l-4.14,6.16V139.51a3.83,3.83,0,0,0,.36.49L14,146l5.89,7.42a1.68,1.68,0,0,0,.18.23,22.52,22.52,0,0,0,6.57,5.43c0,.41,21.21,87.65,21.21,87.65A54.83,54.83,0,0,1,36.91,244.63Zm26.9,1.79-.72.05-1.09.1-.84.07c-.36,0-.71.05-1.06.08l18.16-52.78a4.49,4.49,0,1,0-8.5-2.92L54.42,235.57,36.36,161.8c.35,0,.7,0,1.06,0a23.52,23.52,0,0,0,4.95-.53l45-10a22.17,22.17,0,0,0,2.88-.86l87,32.31a4.8,4.8,0,0,0,.66.12C141,219,98.43,242.64,63.81,246.42Zm176-8.81L104.41,244.4c27.52-11.64,56.47-31.61,82.37-57.5,27.06-27.07,47-56.88,58.26-84.62Zm6.61-171.47c-4.43,32.78-27.09,74.38-63.25,111.48a1.77,1.77,0,0,0-.05-.32l-11.46-39.07a4.49,4.49,0,1,0-8.62,2.53L172,171.23,99.52,144.32l53-47.07a21.06,21.06,0,0,0,2.26-2.37l91.73-30.3c0,.12,0,.27,0,.38ZM160.18,83.62,173,45.09a22.19,22.19,0,0,0,1-9.36l24.31,8.6a4.29,4.29,0,0,0,1.48.27,4.58,4.58,0,0,0,4.27-3,4.47,4.47,0,0,0-2.74-5.71L181,28.68,199.32,9c.77,0,1.53,0,2.29,0,14.39,0,25.63,4,33.5,11.78A34.65,34.65,0,0,1,238,24.05c6,7.73,8.94,18.28,8.85,30.94Z" transform="translate(0.12)"/><path class="a8489853-f1ce-477c-9ecd-6642f7d1d454" d="M229.71,45.92l-11-3.9a4.5,4.5,0,1,0-3,8.48l11,3.9a4.35,4.35,0,0,0,1.5.26,4.5,4.5,0,0,0,1.5-8.74Zm-7.14,189.74a4.48,4.48,0,0,0,3.18-1.32l6.36-6.36a4.5,4.5,0,0,0-6.36-6.36L219.39,228a4.5,4.5,0,0,0,3.18,7.68Zm-15.9-15.9a4.48,4.48,0,0,0,3.18-1.32l6.36-6.36a4.5,4.5,0,0,0-6.36-6.36l-6.36,6.36a4.5,4.5,0,0,0,3.18,7.68ZM187.6,202.55a4.51,4.51,0,0,0,6.36,0l6.35-6.36a4.49,4.49,0,0,0-6.35-6.36l-6.36,6.36A4.49,4.49,0,0,0,187.6,202.55Z" transform="translate(0.12)"/></svg>