<svg id="e91ae942-c192-4618-bc31-e317f1af5ecf" data-name="Layer 1" xmlns="http://www.w3.org/2000/svg" viewBox="0 0 84 125"><defs><style>.fcbafff2-955f-4d03-8906-bf63032c3188{fill:#cfd1ce;}</style></defs><path class="fcbafff2-955f-4d03-8906-bf63032c3188" d="M84.05,120,52,46.15A16.2,16.2,0,0,0,46.06,17V3.72a3.8,3.8,0,0,0-7.6,0V17A16.26,16.26,0,0,0,25.57,32.87a16.55,16.55,0,0,0,6.94,13.28L14,88.73h0L.63,119.82a3.74,3.74,0,0,0,2,4.86A4.92,4.92,0,0,0,4.1,125a3.73,3.73,0,0,0,3.47-2.27L19.46,94.88a69.38,69.38,0,0,0,19,3.73v3.24a3.8,3.8,0,0,0,7.6,0V98.61a69.31,69.31,0,0,0,19-3.73l12.06,27.85A3.73,3.73,0,0,0,80.58,125a4.92,4.92,0,0,0,1.48-.32A3.56,3.56,0,0,0,84.05,120ZM42.26,23.8A9.07,9.07,0,1,1,33,32.87,9.15,9.15,0,0,1,42.26,23.8Zm3.8,67.52V88.41a3.8,3.8,0,0,0-7.6,0v3.07a62,62,0,0,1-16.19-3.24l17-39.18a19,19,0,0,0,3,.32,18.73,18.73,0,0,0,3-.32L62.08,88.24A59.19,59.19,0,0,1,46.06,91.32Z"/></svg>